<svg xmlns="http://www.w3.org/2000/svg" version="1.1" xmlns:xlink="http://www.w3.org/1999/xlink" xmlns:svgjs="http://svgjs.dev/svgjs" viewBox="0 0 1920 1080"><rect width="1920" height="1080" fill="#616161"></rect><g transform="matrix(-2.112515728529184e-16,-1.15,1.15,-2.112515728529184e-16,301.1601943969729,1600.4842235565186)"><path d="M0,-1080C10.320519361947001,-994.2795171899018,65.3900247745049,-740.8312747551461,61.92311617168201,-565.6771031394109C58.45620756885912,-390.52293152367565,-8.649892725642223,-200.39052554862718,-20.801451616937342,-29.07497030558882C-32.95301050823246,142.2405849374495,-1.9509369319945922,281.5972085471076,-10.986237176088707,462.21622831881916C-20.021537420182824,642.8352480905307,-69.8773931907593,874.1944819348413,-75.01325308150203,1054.639148324681C-80.14911297224475,1235.0838147145205,-54.30360536746209,1360.6574180453038,-41.80139652054508,1544.884226657857C-29.299187673628076,1729.1110352704102,-6.966899420090847,2057.4807044429763,0,2160L 1920 2160 L 1920 -1080 Z" fill="url(&quot;#SvgjsLinearGradient1097&quot;)"></path><path d="M640,-1080C655.1330314030588,-938.3598455928276,734.4727371955564,-485.77797724288075,730.7981884183524,-230.15907355696544C727.1236396411484,25.459830128949903,644.4811005196391,174.96454970082345,617.9527073367757,453.7134221154921C591.4243141539123,732.4622945301608,567.9532805439678,1157.9530646169617,571.6278293211718,1442.3341609310464C575.3023780983758,1726.7152572451312,628.6046382201953,2040.389026821841,640,2160L 1920 2160 L 1920 -1080 Z" fill="url(&quot;#SvgjsLinearGradient1098&quot;)"></path><path d="M1280,-1080C1290.7749649888565,-1027.6153540842001,1352.2511448577923,-887.3484474681591,1344.6497899331384,-765.6921245052005C1337.0484350084846,-644.0358015422419,1237.168728019087,-506.87991193006417,1234.3918704520772,-350.0620622222485C1231.6150128850675,-193.24421251443292,1330.7404039677474,33.77043229177349,1327.98864453108,175.21497374169311C1325.2368850944124,316.65951519161274,1238.604193593145,362.07171256141874,1217.8813138320727,498.6051864772692C1197.1584340710003,635.1386603931197,1199.922754529932,860.1023517360369,1203.6513659646453,994.4158172367963C1207.3799773993585,1128.7292827375556,1216.0128575118347,1175.4873657523613,1240.2529824403523,1304.4859794818256C1264.49310736887,1433.4845932112898,1342.4676126091429,1625.8218295272204,1349.0921155357507,1768.4074996135828C1355.7166184623586,1910.9931696999452,1291.5153525892918,2094.7345832689307,1280,2160L 1920 2160 L 1920 -1080 Z" fill="url(&quot;#SvgjsLinearGradient1099&quot;)"></path></g><defs><linearGradient x1="0.1" y1="0" x2="0" y2="1" id="SvgjsLinearGradient1097"><stop stop-color="#616161" offset="0"></stop><stop stop-color="#616161" offset="0"></stop></linearGradient><linearGradient x1="0.1" y1="0" x2="0" y2="1" id="SvgjsLinearGradient1098"><stop stop-color="#414141" offset="0"></stop><stop stop-color="#414141" offset="0.3333333333333333"></stop></linearGradient><linearGradient x1="0.1" y1="0" x2="0" y2="1" id="SvgjsLinearGradient1099"><stop stop-color="#202020" offset="0"></stop><stop stop-color="#202020" offset="0.6666666666666666"></stop></linearGradient></defs></svg>